<svg version="1.1" id="Layer_1" xmlns="http://www.w3.org/2000/svg" xmlns:xlink="http://www.w3.org/1999/xlink" x="0px" y="0px"
	 width="1.7rem" viewBox="0 0 2744 2744" enable-background="new 0 0 2744 2744" xml:space="preserve">
<path fill="#3DBAF3" opacity="1.000000" stroke="none" 
	d="
M1132.241211,759.076660 
	C1138.979980,748.388855 1145.220093,737.345459 1152.543579,727.074646 
	C1184.336792,682.485901 1226.856079,651.581299 1278.394897,634.419495 
	C1373.266357,602.828491 1462.794067,614.560303 1545.137329,672.418213 
	C1570.772705,690.430542 1590.802368,714.027466 1607.895996,740.254822 
	C1686.281982,860.524475 1764.826050,980.691223 1843.307617,1100.898682 
	C1986.614014,1320.395630 2129.913818,1539.897217 2273.226074,1759.390381 
	C2285.970947,1778.910156 2298.922607,1798.279297 2307.391357,1820.229248 
	C2318.460693,1848.919434 2323.750977,1878.646729 2321.413818,1909.225830 
	C2316.923340,1967.982544 2292.074707,2017.359009 2248.873047,2057.071289 
	C2201.857910,2100.289551 2145.783936,2123.085693 2082.265625,2128.392090 
	C2030.682495,2132.701416 1981.514648,2123.915771 1934.674683,2102.186035 
	C1890.716553,2081.792969 1855.214722,2051.470459 1828.653809,2010.768921 
	C1678.112183,1780.078857 1527.524292,1549.418823 1376.292236,1317.636719 
	C1374.603394,1314.817505 1373.626709,1313.075806 1372.537842,1311.407349 
	C1307.429565,1211.644043 1242.300537,1111.894165 1177.205200,1012.122314 
	C1164.841431,993.172363 1151.548218,974.731201 1140.513062,955.030701 
	C1107.837891,896.697937 1103.530518,835.942444 1127.582397,773.351196 
	C1128.742554,770.331909 1129.294067,767.078674 1130.129028,763.934387 
	C1130.129028,763.934387 1129.949463,763.967651 1130.685547,763.759705 
	C1131.694946,762.060059 1131.968018,760.568359 1132.241211,759.076660 
z"/>
<path fill="#DE2589" opacity="1.000000" stroke="none" 
	d="
M1340.719604,1370.268433 
	C1328.325439,1389.613770 1316.070435,1409.049927 1303.515625,1428.290405 
	C1177.144653,1621.957153 1050.641846,1815.537964 924.365662,2009.266235 
	C883.714783,2071.631104 825.747375,2107.875977 754.068420,2123.803223 
	C727.254761,2129.761475 699.974915,2131.961426 672.650208,2129.502930 
	C585.791565,2121.687256 513.749451,2086.521240 464.332489,2012.429810 
	C437.411652,1972.067017 426.320648,1926.861572 430.502960,1878.413574 
	C433.474243,1843.993896 444.737976,1812.119873 463.536194,1783.112427 
	C496.152100,1732.782349 529.014221,1682.611694 561.794006,1632.387939 
	C707.299561,1409.450684 852.812378,1186.518066 998.322815,963.583923 
	C1019.083740,931.776489 1039.845703,899.969727 1061.295410,868.676270 
	C1063.856079,882.317444 1065.922974,895.420654 1067.562988,908.577087 
	C1071.849487,942.964355 1085.119263,974.271240 1102.260254,1003.728027 
	C1121.840332,1037.376587 1143.088867,1070.066772 1164.029907,1102.907227 
	C1183.547974,1133.516235 1203.577026,1163.800049 1223.447388,1194.183716 
	C1260.091553,1250.215576 1296.762695,1306.229736 1333.515869,1362.189941 
	C1335.475220,1365.173096 1338.298462,1367.588623 1340.719604,1370.268433 
z"/>
<path fill="#D42383" opacity="1.000000" stroke="none" 
	d="
M1341.246582,1369.879150 
	C1338.298462,1367.588623 1335.475220,1365.173096 1333.515869,1362.189941 
	C1296.762695,1306.229736 1260.091553,1250.215576 1223.447388,1194.183716 
	C1203.577026,1163.800049 1183.547974,1133.516235 1164.029907,1102.907227 
	C1143.088867,1070.066772 1121.840332,1037.376587 1102.260254,1003.728027 
	C1085.119263,974.271240 1071.849487,942.964355 1067.562988,908.577087 
	C1065.922974,895.420654 1063.856079,882.317444 1061.888672,868.317505 
	C1066.156006,860.451660 1070.392822,853.376038 1074.902954,846.479248 
	C1092.826538,819.070740 1110.835449,791.718140 1129.470947,764.139587 
	C1129.294067,767.078674 1128.742554,770.331909 1127.582397,773.351196 
	C1103.530518,835.942444 1107.837891,896.697937 1140.513062,955.030701 
	C1151.548218,974.731201 1164.841431,993.172363 1177.205200,1012.122314 
	C1242.300537,1111.894165 1307.429565,1211.644043 1372.537842,1311.407349 
	C1373.626709,1313.075806 1374.603394,1314.817505 1375.761719,1317.197510 
	C1364.518555,1335.076538 1353.146118,1352.283203 1341.246582,1369.879150 
z"/>
<!-- <path fill="#D42383" opacity="1.000000" stroke="none" 
	d="
M1131.811523,759.654175 
	C1131.968018,760.568359 1131.694946,762.060059 1130.700928,763.849731 
	C1130.447266,762.842346 1130.914551,761.537048 1131.811523,759.654175 
z"/> -->
</svg>