<svg xmlns="http://www.w3.org/2000/svg" height="800" width="1200" viewBox="-150.00675 -220.99675 1300.0585 1325.9805"><path fill="#283B8E" d="M123.522 133.257H81.073v148.068H44.764V133.257H1.293v-29.661h128.11zm17.645-33.24l35.035-8.189c1.539 7.167 2.294 19.448 2.294 31.965v26.085c0 4.092-.51 9.469-.51 11.001 8.958-8.44 23.791-14.063 37.085-14.063 16.105 0 29.911 7.672 34.001 18.671 2.566 7.414 3.329 9.45 3.329 24.295v91.536h-33.504V193.35c0-13.037-3.568-17.896-13.294-17.896-8.435 0-19.435 5.119-27.107 12.014v93.85H143.72V129.933c0-12.279-1.015-24.539-2.553-29.916m233.208 146.516l13.294 20.471c-15.085 12.271-30.934 18.153-49.347 18.153-37.589 0-61.883-26.602-61.883-67.765 0-23.533 4.86-39.12 16.365-51.911 10.741-12.022 23.778-17.645 41.17-17.645 15.09 0 29.399 5.106 37.848 13.812 12.021 12.26 17.385 29.917 17.385 57.281v7.917h-75.696v1.028c0 20.197 9.979 31.714 27.624 31.714 11.756.002 22.755-4.349 33.24-13.055m-60.348-44.742h39.639v-1.532c0-9.727-1.021-14.833-4.09-19.694-3.322-5.105-8.184-7.672-15.085-7.672-13.049 0-20.463 10.225-20.463 28.38v.518zM0 323.643h37.848l15.343 70.072c7.413 33.24 9.462 58.549 9.462 58.549.763-6.896 3.833-32.218 9.197-56.772l15.859-71.848h39.122l16.364 79.52c3.329 16.624 7.672 47.052 7.672 47.052.517-5.615 6.657-44.226 9.727-59.072l14.568-67.5h37.589l-42.967 179.252h-39.107l-15.86-72.367c-6.14-27.609-8.188-50.127-8.434-51.659 0 0-3.587 25.07-8.707 51.155l-14.567 72.871h-40.66zm316.806 142.592l13.294 20.462c-15.084 12.274-30.931 18.154-49.344 18.154-37.589 0-61.885-26.603-61.885-67.758 0-23.54 4.862-39.122 16.366-51.918 10.741-12.016 23.777-17.638 41.17-17.638 15.091 0 29.399 5.105 37.847 13.812 12.022 12.262 17.386 29.912 17.386 57.275v7.917h-75.696v1.035c0 20.19 9.979 31.707 27.623 31.707 11.756 0 22.756-4.342 33.239-13.048m-60.345-44.751h39.638v-1.532c0-9.721-1.021-14.827-4.084-19.686-3.33-5.105-8.188-7.68-15.105-7.68-13.035 0-20.448 10.225-20.448 28.386v.512zm93.857-35.799c8.428-5.363 12.001-7.155 21.225-10.742 12.777-5.363 23.777-7.658 35.792-7.658 21.987 0 37.073 8.175 42.191 22.757 1.796 5.363 2.294 9.456 2.294 23.525l-.755 43.981v2.296c0 14.069 2.294 19.435 12.273 26.847l-18.156 20.979c-7.93-3.327-15.084-9.203-18.414-15.86-4.859 4.602-5.377 5.119-7.929 6.897-6.399 4.607-15.603 7.174-26.344 7.174-29.142 0-45.002-14.832-45.002-40.917 0-30.688 21.224-45.005 62.912-45.005 2.552 0 4.09 0 7.672.26v-5.378c0-14.573-2.812-19.434-15.344-19.434-11 0-23.791 5.365-37.848 14.834zm67.242 58.052h-1.532c-23.777 0-31.967 4.35-31.967 19.951 0 10.225 6.399 17.121 15.085 17.121 6.398 0 12.791-3.31 17.903-8.946zm131.431-75.703l-8.691 22.763h-21.994v66.732c0 16.629 3.063 20.979 14.839 20.979 3.069 0 6.14-.777 12.26-2.572l4.363 20.469c-9.979 4.084-18.93 5.88-27.882 5.88-17.379 0-31.449-7.678-35.288-19.175-2.042-5.622-2.301-8.188-2.301-20.211v-72.102h-13.035v-22.246h13.035c0-12.791 0-21.483 1.28-31.204l34.777-8.692c-1.279 12.014-2.048 26.085-2.048 39.379zm7.659-50.121l35.036-8.183c1.539 7.168 2.295 19.428 2.295 31.961v26.091c0 4.085-.511 9.462-.511 11.001 8.957-8.449 23.791-14.071 37.085-14.071 16.106 0 29.911 7.672 34.001 18.671 2.566 7.414 3.33 9.45 3.33 24.282v91.55h-33.505v-87.97c0-13.036-3.567-17.896-13.295-17.896-8.435 0-19.433 5.119-27.105 12.022v93.844h-34.778V347.831c0-12.273-1.014-24.553-2.553-29.918m233.207 146.519l13.295 20.469c-15.085 12.273-30.933 18.155-49.347 18.155-37.588 0-61.884-26.603-61.884-67.766 0-23.532 4.86-39.122 16.365-51.913 10.741-12.022 23.777-17.644 41.17-17.644 15.09 0 29.399 5.105 37.849 13.811 12.021 12.26 17.384 29.918 17.384 57.284v7.93h-75.694v1.015c0 20.197 9.979 31.716 27.624 31.716 11.756-.001 22.755-4.35 33.238-13.057m-60.344-44.745h39.637v-1.532c0-9.708-1.021-14.832-4.091-19.692-3.321-5.107-8.182-7.671-15.085-7.671-13.049 0-20.461 10.224-20.461 28.378zm94.122-46.282l30.692-8.188c3.069 5.378 4.86 11.258 5.365 18.672 4.859-6.657 13.048-13.554 19.428-16.624 2.811-1.272 7.419-2.049 11.259-2.049 5.105 0 7.412.517 12.79 2.826l-9.462 30.168c-3.328-1.79-6.141-2.559-9.979-2.559-7.671 0-14.574 3.581-20.966 10.993v92.579h-34.269v-87.46c0-17.65-2.048-30.944-4.858-38.358M127.302 555.929l-16.106 24.293c-8.945-6.656-18.413-9.983-28.393-9.983-12.001 0-23.777 5.894-30.163 15.341-6.908 10.246-9.979 25.072-9.979 45.779 0 24.295 2.049 37.847 7.414 47.554 7.161 13.037 18.931 19.954 34.28 19.954 9.707 0 18.143-2.813 26.841-8.695 1.021-.755 2.301-1.789 3.575-2.811l16.377 22.505c-14.071 11.499-29.156 16.616-49.366 16.616-24.547 0-43.464-7.93-58.051-24.546C9.422 685.83 2.26 664.346 2.26 638.261c0-22.246 3.833-39.883 12.022-55.227 13.812-25.833 39.379-41.176 68.017-41.176 17.645 0 35.296 5.636 45.003 14.071m69.808 34.009c18.671 0 33.239 6.396 44.499 19.686 10.482 12.266 15.084 26.589 15.084 47.82 0 22.497-5.119 37.841-16.358 50.618-9.985 11.259-23.021 18.162-43.225 18.162-35.541 0-58.815-26.589-58.815-67.766 0-41.157 23.532-68.52 58.815-68.52m.516 25.308c-8.188 0-14.833 5.118-17.644 13.313-2.309 6.896-3.581 16.101-3.581 29.136 0 15.091 1.532 26.336 4.343 32.987 3.07 7.155 10.742 10.742 17.392 10.742 14.833 0 21.226-13.295 21.226-44.247 0-17.637-2.308-29.147-6.91-35.029-3.314-4.342-8.692-6.902-14.826-6.902m78.5-18.42l30.946-8.435c2.294 3.573 3.314 6.643 4.602 13.302 8.951-8.694 19.938-13.302 31.952-13.302 10.742 0 19.694 3.573 26.603 10.728 1.797 1.798 2.553 2.813 5.113 6.4 12.014-12.274 22.755-17.128 37.084-17.128 10.225 0 19.932 3.056 25.814 8.183 7.426 6.392 9.721 14.063 9.721 31.96v93.082h-33.239v-86.425c0-15.602-1.798-18.674-10.742-18.674-6.399 0-15.343 4.345-22.764 11.002v94.097h-32.464V636.45c0-16.364-2.313-20.189-11.763-20.189-6.397 0-15.084 3.329-22.504 9.964v95.392h-33.498v-91.285c0-18.932-1.279-27.108-4.861-33.506m204.053-5.119l30.429-5.378c1.279 4.602 2.055 8.188 2.307 12.273 5.883-7.155 18.918-12.273 32.213-12.273 9.21 0 18.671 3.069 25.833 7.932 14.063 9.46 24.287 26.33 24.287 56.52 0 28.12-4.344 42.693-18.154 57.016-8.944 9.456-20.707 14.832-35.036 14.832-10.225 0-19.932-2.564-27.358-6.914.518 3.084.518 10.756.518 10.756v40.902l-32.989 8.693v-151.37c-.002-17.141-.259-22.002-2.05-32.989m35.288 96.144c4.609 3.833 12.022 7.672 18.918 7.672 16.883 0 23.532-11.502 23.532-41.434 0-12.521-1.015-22.499-3.322-28.897-2.554-7.155-7.93-10.98-16.364-10.98-8.434 0-16.623 3.567-22.764 9.967zm101.522-83.374c8.435-5.357 12.022-7.152 21.231-10.728 12.777-5.371 23.777-7.664 35.792-7.664 21.987 0 37.073 8.167 42.191 22.756 1.797 5.365 2.294 9.461 2.294 23.519l-.756 43.981v2.295c0 14.068 2.295 19.447 12.273 26.867L711.86 726.47c-7.931-3.33-15.092-9.212-18.413-15.861-4.861 4.602-5.378 5.119-7.931 6.908-6.399 4.589-15.589 7.155-26.344 7.155-29.143 0-45.003-14.826-45.003-40.911 0-30.693 21.226-45.003 62.911-45.003 2.554 0 4.086 0 7.673.252v-5.37c0-14.575-2.812-19.434-15.344-19.434-11 0-23.777 5.376-37.848 14.825zm67.248 58.058h-1.532c-23.776 0-31.965 4.344-31.965 19.945 0 10.224 6.392 17.127 15.084 17.127 6.399 0 12.791-3.316 17.896-8.938zm61.632-66.477l30.429-8.688c3.056 5.357 4.86 10.98 4.86 16.365 7.917-5.623 9.455-6.657 15.092-9.727 6.896-3.576 15.846-5.623 23.519-5.623 14.567 0 27.365 7.672 31.449 18.931 1.79 4.846 2.553 10.481 2.553 18.657v95.643h-33.742v-85.158c0-14.827-2.566-19.169-11.505-19.169-6.909 0-15.86 4.6-23.792 11.754v92.573h-34.261V626.75c0-11.259-1.552-22-4.602-30.692m124.525-3.065l35.036-4.084 22.764 76.191c2.294 7.932 6.896 27.101 6.896 27.101s2.553-14.567 4.092-20.966c2.048-8.184 2.565-9.462 5.118-18.154l19.687-62.137h36.058l-47.556 132.712c-8.95 25.322-15.607 36.31-25.069 43.219-8.694 6.386-19.953 10.489-31.709 12.022l-11.763-22.499c7.42-2.055 16.106-5.125 21.225-8.706 3.833-2.811 6.903-6.386 9.715-10.728 3.321-5.377 4.355-7.672 7.425-15.349h-8.705c-2.036-6.135-3.07-8.688-5.364-15.344-2.552-7.932-6.65-20.967-6.896-21.483z"/><path d="M673.722 0c-5.093 12.909-9.946 24.865-14.548 36.906-12.274 32.106-15.384 65.424-12.764 99.432 1.764 23.042 3.354 46.183-4.145 68.509-13.818 41.13-42.775 64.715-85.694 70.438-44.027 5.882-79.389-10.43-103.889-46.593-36.489-53.829-20.628-138.894 61.207-161.312 20.271-5.556 41.196-8.706 61.666-13.632 34.326-8.277 63.574-26.417 90.886-48.099 2.142-1.711 4.33-3.368 7.281-5.649" fill="#0BA2DC"/><path d="M676.565 58.024l-.815 1.347c-1.498-.981-2.459-1.319-3.792-1.319-1.957 0-3.11.98-3.11 2.553 0 1.253.75 1.981 2.599 2.539l1.778.57c1.386.437 2.128.843 2.758 1.579.623.716 1.015 1.762 1.015 2.738 0 1.446-.802 2.811-2.155 3.739-1.021.65-2.068.949-3.495.949-1.855 0-3.447-.445-4.992-1.399l.822-1.452c1.293.921 2.613 1.333 4.17 1.333 1.181 0 1.812-.179 2.474-.683.75-.57 1.114-1.314 1.114-2.208 0-1.394-.907-2.356-2.798-2.912l-1.564-.47c-1.413-.438-2.142-.75-2.766-1.394-.63-.675-.981-1.543-.981-2.533 0-2.664 2.022-4.469 5.039-4.469 1.683 0 3.228.491 4.699 1.492m5.12-1.161h2.719l2.837 10.158c.299 1.089.406 1.526.611 2.732.258-1.313.365-1.751.57-2.539l2.931-10.352h2.744l1.333 15.57h-1.862l-.909-11.411c-.072-1.001-.113-2.66-.113-2.66a37.487 37.487 0 01-.608 2.453l-3.342 11.618h-1.586l-3.082-11.048c-.312-1.192-.544-1.948-.763-3.037 0 0-.12 2.063-.187 3.011l-.855 11.073h-1.797z" fill="#6D6F70"/><path d="M45.308 800.075h12.141L89.7 882.593H77.559l-9.018-24.852H33.644l-9.25 24.852H13.056zm-8.203 48.424H65.08l-13.759-38.484h-.232zm61.016-25.66h9.243v9.481h.232c4.158-7.407 10.755-10.867 19.421-10.867 15.722 0 20.568 9.017 20.568 21.835v39.313h-9.812v-40.455c0-7.397-4.635-12.027-12.141-12.027-11.909 0-17.697 7.971-17.697 18.726v33.757h-9.813v-59.763zm92.683-22.777h10.987v82.539h-10.987zm27.848 0h29.945c7.167 0 16.987 0 21.848 3.018 5.43 3.23 9.708 9.011 9.708 17.213 0 8.792-4.51 15.377-12.26 18.5v.227c10.171 2.201 15.721 9.712 15.721 19.884 0 12.015-8.786 23.69-25.077 23.69h-39.884v-82.532zm10.981 35.494h21.96c12.479 0 17.572-4.395 17.572-13.181 0-11.558-7.971-13.063-17.572-13.063h-21.96zm0 37.795h27.518c9.587 0 15.496-5.662 15.496-14.785 0-10.756-8.68-13.773-17.929-13.773h-25.084v28.558zm107.377-3.931l26.111-69.351h15.032v82.537H367.75v-68.671h-.226l-25.773 68.671h-9.376l-25.774-68.671h-.224v68.671h-10.404v-82.537h15.031zm85.635-69.358h29.924c7.174 0 16.988 0 21.855 3.018 5.43 3.23 9.707 9.011 9.707 17.213 0 8.792-4.509 15.377-12.261 18.5v.227c10.166 2.201 15.722 9.712 15.722 19.884 0 12.015-8.786 23.69-25.083 23.69h-39.864zm10.967 35.494h21.96c12.479 0 17.572-4.395 17.572-13.181 0-11.558-7.97-13.063-17.572-13.063h-21.96zm0 37.795h27.517c9.583 0 15.489-5.662 15.489-14.785 0-10.756-8.672-13.773-17.922-13.773h-25.084zm114.306 9.242h-9.25v-9.475h-.231c-4.151 7.4-10.755 10.862-19.415 10.862-15.729 0-20.574-9.013-20.574-21.848V822.83h9.832v40.455c0 7.398 4.615 12.033 12.122 12.033 11.915 0 17.696-7.977 17.696-18.731V822.83h9.82zm19.64-18.837c.352 8.786 8.097 11.558 16.067 11.558 6.12 0 14.447-1.386 14.447-8.899 0-15.368-39.068-4.965-39.068-27.966 0-12.021 11.783-16.995 22.312-16.995 13.401 0 23.574 4.157 24.495 18.731h-9.82c-.584-7.638-7.506-10.066-13.878-10.066-5.889 0-12.711 1.618-12.711 7.633 0 6.942 10.404 8.322 19.547 10.404 9.813 2.201 19.528 5.537 19.528 16.986 0 14.337-13.295 18.845-25.423 18.845-13.421 0-24.745-5.442-25.315-20.23h9.819zm60.903-51.672h-9.814v-12.022h9.814zm-9.826 10.755h9.813v59.762h-9.813zm23.12 0h9.243v9.481h.231c4.158-7.407 10.756-10.867 19.422-10.867 15.721 0 20.568 9.017 20.568 21.835v39.313h-9.813v-40.455c0-7.397-4.635-12.027-12.141-12.027-11.908 0-17.697 7.971-17.697 18.726v33.757h-9.813zm113.266 40.804c-2.666 13.295-12.022 20.344-25.549 20.344-19.063 0-28.094-13.294-28.663-31.442 0-18.028 11.789-31.099 28.079-31.099 21.159 0 27.637 19.774 27.053 34.228h-44.729c-.339 10.385 5.556 19.646 18.619 19.646 8.201 0 13.737-3.812 15.475-11.677zm-9.483-16.649c-.57-9.356-7.399-16.882-17.22-16.882-10.172 0-16.523 7.631-17.106 16.882zm27.504 16.762c.339 8.786 8.096 11.558 16.066 11.558 6.126 0 14.448-1.386 14.448-8.899 0-15.368-39.068-4.965-39.068-27.966 0-12.021 11.789-16.995 22.313-16.995 13.4 0 23.572 4.157 24.493 18.731h-9.813c-.583-7.638-7.514-10.066-13.879-10.066-5.895 0-12.711 1.618-12.711 7.633 0 6.942 10.397 8.322 19.541 10.404 9.813 2.201 19.527 5.537 19.527 16.986 0 14.337-13.294 18.845-25.435 18.845-13.408 0-24.733-5.442-25.303-20.23h9.821zm58.708 0c.338 8.786 8.096 11.558 16.066 11.558 6.12 0 14.447-1.386 14.447-8.899 0-15.368-39.066-4.965-39.066-27.966 0-12.021 11.781-16.995 22.312-16.995 13.4 0 23.572 4.157 24.494 18.731h-9.821c-.583-7.638-7.506-10.066-13.878-10.066-5.888 0-12.704 1.618-12.704 7.633 0 6.942 10.397 8.322 19.541 10.404 9.813 2.201 19.527 5.537 19.527 16.986 0 14.337-13.294 18.845-25.435 18.845-13.408 0-24.733-5.442-25.303-20.23h9.82z" fill="#283B8E"/></svg>